# xmcd
#
# Track frame offsets:
#	150
#	19892
#	37244
#	55240
#	97734
#	114637
#	131549
#	151176
#	171517
#	188601
#	208375
#	214897
#	233283
#	253134
#	274861
#
# Disc length: 3808 seconds
#
# Revision: 0
# Processed by: cddbd v1.5.2PL0 Copyright (c) Steve Scherf et al.
# Submitted via: dBpowerAMP V4.0
#
DISCID=d60ede0f
DTITLE=Charlelie Couture - FORt rEVEUR
DYEAR=1900
DGENRE=
TTITLE0=Les Statuts De Ma Liberte
TTITLE1=Ta Phosphorescence
TTITLE2=Les Ours Blancs
TTITLE3=Le Phenix
TTITLE4=Les Gestes Gratuits
TTITLE5=La Vie Facile
TTITLE6=Si Legere
TTITLE7=Quelqu'Un En Moi
TTITLE8=Nes Trop Loin
TTITLE9=Peintures De Guerre
TTITLE10=Faire Com
TTITLE11=Born Again
TTITLE12=58th Street
TTITLE13=Entre Les Lignes
TTITLE14=Summertime
EXTD=
EXTT0=
EXTT1=
EXTT2=
EXTT3=
EXTT4=
EXTT5=
EXTT6=
EXTT7=
EXTT8=
EXTT9=
EXTT10=
EXTT11=
EXTT12=
EXTT13=
EXTT14=
PLAYORDER=
